# Blender 5.0.1
# www.blender.org
mtllib B.mtl
o Cube
v -1.000000 -5.753893 5.101614
v -1.000000 6.245935 5.101613
v -1.000000 -5.753893 3.101614
v -1.000000 6.245935 3.101613
v 1.000000 -5.753893 5.101614
v 1.000000 6.245935 5.101613
v 1.000000 -5.753893 3.101614
v 1.000000 6.245935 3.101613
v -1.000000 -0.585311 5.101614
v -1.000000 1.077354 5.101614
v -1.000000 1.077354 3.101614
v -1.000000 -0.585311 3.101614
v 1.000000 1.077354 3.101614
v 1.000000 -0.585311 3.101614
v 1.000000 1.077354 5.101614
v 1.000000 -0.585311 5.101614
v -1.000000 1.077353 -2.890943
v -1.000000 -0.585312 -2.890943
v 1.000000 1.077353 -2.890943
v 1.000000 -0.585312 -2.890943
v -1.000000 4.694400 5.101613
v -1.000000 4.694400 3.101613
v 1.000000 4.694400 3.101613
v 1.000000 4.694400 5.101613
v -1.000000 6.245934 -1.049800
v 1.000000 6.245934 -1.049800
v -1.000000 4.694399 -1.049800
v 1.000000 4.694399 -1.049800
v -1.000000 -4.106534 3.101614
v 1.000000 -4.106534 3.101614
v 1.000000 -4.106534 5.101614
v -1.000000 -4.106534 5.101614
v -1.000000 -4.106534 -0.770778
v -1.000000 -5.753894 -0.770777
v 1.000000 -5.753894 -0.770777
v 1.000000 -4.106534 -0.770778
v -0.760469 0.467255 -2.841074
v -0.760469 -1.180104 -2.841074
v 1.239531 -1.180104 -2.841074
v 1.239531 0.467255 -2.841074
v -1.645053 1.766392 -2.586326
v 0.354947 1.766392 -2.586326
v -1.645053 0.214856 -2.586326
v 0.354947 0.214856 -2.586326
vn -1.0000 -0.0000 -0.0000
vn -0.0000 1.0000 -0.0000
vn 1.0000 -0.0000 -0.0000
vn -0.0000 -0.0000 1.0000
vn -0.0000 -1.0000 -0.0000
vn -0.0000 -0.0000 -1.0000
vn -0.0000 -0.3245 0.9459
vn -0.9934 -0.0000 -0.1149
vn -0.0000 0.4124 0.9110
vn -0.0000 -0.4124 -0.9110
vn 0.9934 -0.0000 0.1149
vn -0.9220 -0.0000 0.3871
vn 0.9220 -0.0000 -0.3871
vn -0.0000 0.3245 -0.9459
vt 0.599985 0.000000
vt 0.625000 0.000000
vt 0.625000 0.250000
vt 0.599984 0.250000
vt 0.875000 0.500000
vt 0.625000 0.500000
vt 0.599985 0.500000
vt 0.625000 0.750000
vt 0.599984 0.750000
vt 0.625000 1.000000
vt 0.599984 1.000000
vt 0.125000 0.500000
vt 0.375000 0.500000
vt 0.375000 0.750000
vt 0.125000 0.750000
vt 0.875000 0.750000
vt 0.401560 0.750000
vt 0.458333 0.750000
vt 0.458333 1.000000
vt 0.401560 1.000000
vt 0.541667 0.750000
vt 0.541667 1.000000
vt 0.401560 0.500000
vt 0.458333 0.500000
vt 0.541667 0.500000
vt 0.401560 0.250000
vt 0.458333 0.250000
vt 0.401560 0.000000
vt 0.458333 0.000000
vt 0.541667 0.000000
vt 0.541667 0.250000
vt 0.375000 0.000000
vt 0.375000 0.250000
vt 0.375000 1.000000
s 1
f 21/1/1 2/2/1 4/3/1 22/4/1
f 4/5/2 8/6/2 26/6/2 25/5/2
f 23/7/3 8/6/3 6/8/3 24/9/3
f 24/9/4 6/8/4 2/10/4 21/11/4
f 3/12/5 7/13/5 5/14/5 1/15/5
f 8/6/2 4/5/2 2/16/2 6/8/2
f 31/17/4 16/18/4 9/19/4 32/20/4
f 16/18/4 15/21/4 10/22/4 9/19/4
f 30/23/3 14/24/3 16/18/3 31/17/3
f 14/24/3 13/25/3 15/21/3 16/18/3
f 29/26/6 12/27/6 14/24/6 30/23/6
f 13/25/3 14/24/3 20/24/3 19/25/3
f 32/28/1 9/29/1 12/27/1 29/26/1
f 9/29/1 10/30/1 11/31/1 12/27/1
f 18/27/6 17/31/6 19/25/6 20/24/6
f 12/27/1 11/31/1 17/31/1 18/27/1
f 14/24/5 12/27/5 18/27/5 20/24/5
f 11/31/2 13/25/2 19/25/2 17/31/2
f 15/21/4 24/9/4 21/11/4 10/22/4
f 13/25/3 23/7/3 24/9/3 15/21/3
f 11/31/6 22/4/6 23/7/6 13/25/6
f 10/30/1 21/1/1 22/4/1 11/31/1
f 28/7/7 27/4/7 43/4/7 44/7/7
f 8/6/3 23/7/3 28/7/3 26/6/3
f 22/4/1 4/3/1 25/3/1 27/4/1
f 23/7/5 22/4/5 27/4/5 28/7/5
f 1/32/1 32/28/1 29/26/1 3/33/1
f 3/33/1 29/26/1 33/26/1 34/33/1
f 7/13/3 30/23/3 31/17/3 5/14/3
f 5/14/4 31/17/4 32/20/4 1/34/4
f 34/33/8 33/26/8 37/26/8 38/33/8
f 30/23/3 7/13/3 35/13/3 36/23/3
f 7/13/5 3/12/5 34/12/5 35/13/5
f 29/26/2 30/23/2 36/23/2 33/26/2
f 38/33/6 37/26/6 40/23/6 39/13/6
f 33/26/9 36/23/9 40/23/9 37/26/9
f 35/13/10 34/12/10 38/12/10 39/13/10
f 36/23/11 35/13/11 39/13/11 40/23/11
f 43/4/6 41/3/6 42/6/6 44/7/6
f 27/4/12 25/3/12 41/3/12 43/4/12
f 26/6/13 28/7/13 44/7/13 42/6/13
f 25/5/14 26/6/14 42/6/14 41/5/14
